STARTFONT 2.1
COMMENT
COMMENT Converted from OpenType font "CircularStd-Bold.otf" by "otf2bdf 3.0".
COMMENT
FONT -FreeType-Circular Std Bold-Medium-R-Normal--10-70-100-100-P-54-ISO10646-1
SIZE 7 100 100
FONTBOUNDINGBOX 15 11 0 -2
STARTPROPERTIES 19
FOUNDRY "FreeType"
FAMILY_NAME "Circular Std Bold"
WEIGHT_NAME "Medium"
SLANT "R"
SETWIDTH_NAME "Normal"
ADD_STYLE_NAME ""
PIXEL_SIZE 10
POINT_SIZE 70
RESOLUTION_X 100
RESOLUTION_Y 100
SPACING "P"
AVERAGE_WIDTH 54
CHARSET_REGISTRY "ISO10646"
CHARSET_ENCODING "1"
FONT_ASCENT 9
FONT_DESCENT 2
COPYRIGHT "Generated in 2013 by FontLab Studio. Copyright info pending."
_OTF_FONTFILE "CircularStd-Bold.otf"
_OTF_PSNAME "CircularStd-Bold"
ENDPROPERTIES
CHARS 332
STARTCHAR 0000
ENCODING 0
SWIDTH 0 0
DWIDTH 0 0
BBX 0 0 0 0
BITMAP
ENDCHAR
STARTCHAR 000D
ENCODING 13
SWIDTH 205 0
DWIDTH 2 0
BBX 0 0 0 0
BITMAP
ENDCHAR
STARTCHAR 0020
ENCODING 32
SWIDTH 205 0
DWIDTH 2 0
BBX 0 0 0 0
BITMAP
ENDCHAR
STARTCHAR 0021
ENCODING 33
SWIDTH 308 0
DWIDTH 3 0
BBX 1 7 1 0
BITMAP
80
80
80
80
80
80
80
ENDCHAR
STARTCHAR 0022
ENCODING 34
SWIDTH 411 0
DWIDTH 4 0
BBX 4 3 0 4
BITMAP
F0
E0
A0
ENDCHAR
STARTCHAR 0023
ENCODING 35
SWIDTH 720 0
DWIDTH 7 0
BBX 7 7 0 0
BITMAP
14
24
7E
28
FC
68
48
ENDCHAR
STARTCHAR 0024
ENCODING 36
SWIDTH 617 0
DWIDTH 6 0
BBX 5 8 0 -1
BITMAP
20
78
48
70
38
C8
78
20
ENDCHAR
STARTCHAR 0025
ENCODING 37
SWIDTH 822 0
DWIDTH 8 0
BBX 8 7 0 0
BITMAP
62
94
68
08
16
25
26
ENDCHAR
STARTCHAR 0026
ENCODING 38
SWIDTH 720 0
DWIDTH 7 0
BBX 5 7 1 0
BITMAP
60
90
F0
68
B8
98
E8
ENDCHAR
STARTCHAR 0027
ENCODING 39
SWIDTH 205 0
DWIDTH 2 0
BBX 2 3 0 4
BITMAP
C0
C0
80
ENDCHAR
STARTCHAR 0028
ENCODING 40
SWIDTH 308 0
DWIDTH 3 0
BBX 3 10 0 -2
BITMAP
20
60
40
40
C0
C0
40
40
60
20
ENDCHAR
STARTCHAR 0029
ENCODING 41
SWIDTH 308 0
DWIDTH 3 0
BBX 3 10 0 -2
BITMAP
80
40
40
20
20
20
20
40
40
80
ENDCHAR
STARTCHAR 002A
ENCODING 42
SWIDTH 411 0
DWIDTH 4 0
BBX 4 4 0 3
BITMAP
20
F0
60
50
ENDCHAR
STARTCHAR 002B
ENCODING 43
SWIDTH 617 0
DWIDTH 6 0
BBX 5 5 0 0
BITMAP
20
20
F8
20
20
ENDCHAR
STARTCHAR 002C
ENCODING 44
SWIDTH 308 0
DWIDTH 3 0
BBX 1 4 1 -2
BITMAP
80
80
80
80
ENDCHAR
STARTCHAR 002D
ENCODING 45
SWIDTH 411 0
DWIDTH 4 0
BBX 3 1 0 2
BITMAP
E0
ENDCHAR
STARTCHAR 002E
ENCODING 46
SWIDTH 308 0
DWIDTH 3 0
BBX 1 2 1 0
BITMAP
80
80
ENDCHAR
STARTCHAR 002F
ENCODING 47
SWIDTH 514 0
DWIDTH 5 0
BBX 4 7 0 0
BITMAP
10
10
20
20
40
40
80
ENDCHAR
STARTCHAR 0030
ENCODING 48
SWIDTH 617 0
DWIDTH 6 0
BBX 6 7 0 0
BITMAP
78
48
CC
CC
CC
48
78
ENDCHAR
STARTCHAR 0031
ENCODING 49
SWIDTH 411 0
DWIDTH 4 0
BBX 3 7 0 0
BITMAP
20
E0
20
20
20
20
20
ENDCHAR
STARTCHAR 0032
ENCODING 50
SWIDTH 514 0
DWIDTH 5 0
BBX 5 7 0 0
BITMAP
70
D8
C8
18
70
40
F8
ENDCHAR
STARTCHAR 0033
ENCODING 51
SWIDTH 514 0
DWIDTH 5 0
BBX 5 7 0 0
BITMAP
F8
10
30
30
08
D8
70
ENDCHAR
STARTCHAR 0034
ENCODING 52
SWIDTH 617 0
DWIDTH 6 0
BBX 6 7 0 0
BITMAP
18
38
78
D8
FC
18
18
ENDCHAR
STARTCHAR 0035
ENCODING 53
SWIDTH 514 0
DWIDTH 5 0
BBX 5 7 0 0
BITMAP
78
40
70
58
48
D8
70
ENDCHAR
STARTCHAR 0036
ENCODING 54
SWIDTH 617 0
DWIDTH 6 0
BBX 5 7 0 0
BITMAP
38
40
78
C8
C8
48
78
ENDCHAR
STARTCHAR 0037
ENCODING 55
SWIDTH 514 0
DWIDTH 5 0
BBX 5 7 0 0
BITMAP
F8
10
30
20
60
60
40
ENDCHAR
STARTCHAR 0038
ENCODING 56
SWIDTH 617 0
DWIDTH 6 0
BBX 5 7 0 0
BITMAP
70
48
48
70
C8
C8
70
ENDCHAR
STARTCHAR 0039
ENCODING 57
SWIDTH 617 0
DWIDTH 6 0
BBX 5 7 0 0
BITMAP
70
58
C8
D8
78
18
70
ENDCHAR
STARTCHAR 003A
ENCODING 58
SWIDTH 308 0
DWIDTH 3 0
BBX 1 5 1 0
BITMAP
80
80
00
80
80
ENDCHAR
STARTCHAR 003B
ENCODING 59
SWIDTH 308 0
DWIDTH 3 0
BBX 1 6 1 -1
BITMAP
80
80
00
00
80
80
ENDCHAR
STARTCHAR 003C
ENCODING 60
SWIDTH 514 0
DWIDTH 5 0
BBX 5 5 0 0
BITMAP
18
70
C0
70
18
ENDCHAR
STARTCHAR 003D
ENCODING 61
SWIDTH 617 0
DWIDTH 6 0
BBX 4 3 1 1
BITMAP
F0
00
F0
ENDCHAR
STARTCHAR 003E
ENCODING 62
SWIDTH 514 0
DWIDTH 5 0
BBX 4 5 0 0
BITMAP
80
60
10
60
80
ENDCHAR
STARTCHAR 003F
ENCODING 63
SWIDTH 514 0
DWIDTH 5 0
BBX 5 7 0 0
BITMAP
70
D8
58
30
20
20
20
ENDCHAR
STARTCHAR 0040
ENCODING 64
SWIDTH 822 0
DWIDTH 8 0
BBX 8 8 0 -1
BITMAP
3C
42
5D
A5
A6
5E
60
1C
ENDCHAR
STARTCHAR 0041
ENCODING 65
SWIDTH 720 0
DWIDTH 7 0
BBX 7 7 0 0
BITMAP
10
28
28
6C
7C
44
C6
ENDCHAR
STARTCHAR 0042
ENCODING 66
SWIDTH 617 0
DWIDTH 6 0
BBX 5 7 1 0
BITMAP
F0
90
90
F0
98
98
F0
ENDCHAR
STARTCHAR 0043
ENCODING 67
SWIDTH 720 0
DWIDTH 7 0
BBX 7 7 0 0
BITMAP
3C
66
40
C0
40
66
3C
ENDCHAR
STARTCHAR 0044
ENCODING 68
SWIDTH 720 0
DWIDTH 7 0
BBX 6 7 1 0
BITMAP
F0
98
8C
8C
8C
98
F0
ENDCHAR
STARTCHAR 0045
ENCODING 69
SWIDTH 617 0
DWIDTH 6 0
BBX 4 7 1 0
BITMAP
F0
80
80
F0
80
80
F0
ENDCHAR
STARTCHAR 0046
ENCODING 70
SWIDTH 514 0
DWIDTH 5 0
BBX 4 7 1 0
BITMAP
F0
80
80
F0
80
80
80
ENDCHAR
STARTCHAR 0047
ENCODING 71
SWIDTH 822 0
DWIDTH 8 0
BBX 7 7 0 0
BITMAP
3C
66
C0
CE
42
66
3A
ENDCHAR
STARTCHAR 0048
ENCODING 72
SWIDTH 720 0
DWIDTH 7 0
BBX 5 7 1 0
BITMAP
88
88
88
F8
88
88
88
ENDCHAR
STARTCHAR 0049
ENCODING 73
SWIDTH 308 0
DWIDTH 3 0
BBX 1 7 1 0
BITMAP
80
80
80
80
80
80
80
ENDCHAR
STARTCHAR 004A
ENCODING 74
SWIDTH 514 0
DWIDTH 5 0
BBX 5 7 0 0
BITMAP
18
18
18
18
98
D8
70
ENDCHAR
STARTCHAR 004B
ENCODING 75
SWIDTH 720 0
DWIDTH 7 0
BBX 5 7 1 0
BITMAP
98
90
A0
E0
F0
98
88
ENDCHAR
STARTCHAR 004C
ENCODING 76
SWIDTH 514 0
DWIDTH 5 0
BBX 4 7 1 0
BITMAP
80
80
80
80
80
80
F0
ENDCHAR
STARTCHAR 004D
ENCODING 77
SWIDTH 925 0
DWIDTH 9 0
BBX 7 7 1 0
BITMAP
C6
C6
E6
AE
AA
BA
92
ENDCHAR
STARTCHAR 004E
ENCODING 78
SWIDTH 720 0
DWIDTH 7 0
BBX 6 7 1 0
BITMAP
CC
CC
EC
BC
9C
9C
8C
ENDCHAR
STARTCHAR 004F
ENCODING 79
SWIDTH 822 0
DWIDTH 8 0
BBX 7 7 0 0
BITMAP
3C
66
42
C2
42
66
3C
ENDCHAR
STARTCHAR 0050
ENCODING 80
SWIDTH 617 0
DWIDTH 6 0
BBX 5 7 1 0
BITMAP
F0
98
98
F0
80
80
80
ENDCHAR
STARTCHAR 0051
ENCODING 81
SWIDTH 822 0
DWIDTH 8 0
BBX 7 8 0 -1
BITMAP
3C
66
42
C2
4A
66
3E
02
ENDCHAR
STARTCHAR 0052
ENCODING 82
SWIDTH 617 0
DWIDTH 6 0
BBX 5 7 1 0
BITMAP
F0
98
98
F0
A0
B0
90
ENDCHAR
STARTCHAR 0053
ENCODING 83
SWIDTH 617 0
DWIDTH 6 0
BBX 5 7 0 0
BITMAP
78
48
40
78
08
C8
78
ENDCHAR
STARTCHAR 0054
ENCODING 84
SWIDTH 617 0
DWIDTH 6 0
BBX 6 7 0 0
BITMAP
FC
30
30
30
30
30
30
ENDCHAR
STARTCHAR 0055
ENCODING 85
SWIDTH 720 0
DWIDTH 7 0
BBX 5 7 1 0
BITMAP
88
88
88
88
88
D8
70
ENDCHAR
STARTCHAR 0056
ENCODING 86
SWIDTH 720 0
DWIDTH 7 0
BBX 6 7 0 0
BITMAP
C4
44
4C
68
28
38
30
ENDCHAR
STARTCHAR 0057
ENCODING 87
SWIDTH 1028 0
DWIDTH 10 0
BBX 10 7 0 0
BITMAP
CCC0
4C80
4E80
5E80
7380
3300
3300
ENDCHAR
STARTCHAR 0058
ENCODING 88
SWIDTH 720 0
DWIDTH 7 0
BBX 6 7 0 0
BITMAP
CC
68
38
30
38
68
CC
ENDCHAR
STARTCHAR 0059
ENCODING 89
SWIDTH 617 0
DWIDTH 6 0
BBX 6 7 0 0
BITMAP
CC
48
38
30
30
30
30
ENDCHAR
STARTCHAR 005A
ENCODING 90
SWIDTH 617 0
DWIDTH 6 0
BBX 6 7 0 0
BITMAP
FC
0C
18
30
60
40
FC
ENDCHAR
STARTCHAR 005B
ENCODING 91
SWIDTH 308 0
DWIDTH 3 0
BBX 2 10 1 -2
BITMAP
C0
80
80
80
80
80
80
80
80
C0
ENDCHAR
STARTCHAR 005C
ENCODING 92
SWIDTH 514 0
DWIDTH 5 0
BBX 4 7 0 0
BITMAP
80
40
40
20
20
10
10
ENDCHAR
STARTCHAR 005D
ENCODING 93
SWIDTH 308 0
DWIDTH 3 0
BBX 2 10 0 -2
BITMAP
C0
40
40
40
40
40
40
40
40
C0
ENDCHAR
STARTCHAR 005E
ENCODING 94
SWIDTH 514 0
DWIDTH 5 0
BBX 5 4 0 3
BITMAP
20
70
50
C8
ENDCHAR
STARTCHAR 005F
ENCODING 95
SWIDTH 514 0
DWIDTH 5 0
BBX 5 1 0 -1
BITMAP
F8
ENDCHAR
STARTCHAR 0060
ENCODING 96
SWIDTH 308 0
DWIDTH 3 0
BBX 1 2 1 5
BITMAP
80
80
ENDCHAR
STARTCHAR 0061
ENCODING 97
SWIDTH 514 0
DWIDTH 5 0
BBX 5 5 0 0
BITMAP
70
D8
78
D8
78
ENDCHAR
STARTCHAR 0062
ENCODING 98
SWIDTH 617 0
DWIDTH 6 0
BBX 5 7 1 0
BITMAP
80
80
F0
90
98
90
F0
ENDCHAR
STARTCHAR 0063
ENCODING 99
SWIDTH 514 0
DWIDTH 5 0
BBX 5 5 0 0
BITMAP
70
48
C0
48
70
ENDCHAR
STARTCHAR 0064
ENCODING 100
SWIDTH 617 0
DWIDTH 6 0
BBX 5 7 0 0
BITMAP
08
08
78
48
C8
48
78
ENDCHAR
STARTCHAR 0065
ENCODING 101
SWIDTH 514 0
DWIDTH 5 0
BBX 5 5 0 0
BITMAP
70
48
F8
48
70
ENDCHAR
STARTCHAR 0066
ENCODING 102
SWIDTH 308 0
DWIDTH 3 0
BBX 3 7 0 0
BITMAP
60
40
E0
40
40
40
40
ENDCHAR
STARTCHAR 0067
ENCODING 103
SWIDTH 617 0
DWIDTH 6 0
BBX 5 7 0 -2
BITMAP
78
48
C8
C8
78
C8
70
ENDCHAR
STARTCHAR 0068
ENCODING 104
SWIDTH 617 0
DWIDTH 6 0
BBX 4 7 1 0
BITMAP
80
80
F0
90
90
90
90
ENDCHAR
STARTCHAR 0069
ENCODING 105
SWIDTH 308 0
DWIDTH 3 0
BBX 1 7 1 0
BITMAP
80
00
80
80
80
80
80
ENDCHAR
STARTCHAR 006A
ENCODING 106
SWIDTH 308 0
DWIDTH 3 0
BBX 2 9 0 -2
BITMAP
40
00
40
40
40
40
40
40
C0
ENDCHAR
STARTCHAR 006B
ENCODING 107
SWIDTH 514 0
DWIDTH 5 0
BBX 4 7 1 0
BITMAP
80
80
B0
E0
E0
A0
B0
ENDCHAR
STARTCHAR 006C
ENCODING 108
SWIDTH 308 0
DWIDTH 3 0
BBX 1 7 1 0
BITMAP
80
80
80
80
80
80
80
ENDCHAR
STARTCHAR 006D
ENCODING 109
SWIDTH 925 0
DWIDTH 9 0
BBX 7 5 1 0
BITMAP
FE
92
92
92
92
ENDCHAR
STARTCHAR 006E
ENCODING 110
SWIDTH 617 0
DWIDTH 6 0
BBX 4 5 1 0
BITMAP
F0
90
90
90
90
ENDCHAR
STARTCHAR 006F
ENCODING 111
SWIDTH 617 0
DWIDTH 6 0
BBX 5 5 0 0
BITMAP
70
48
C8
48
70
ENDCHAR
STARTCHAR 0070
ENCODING 112
SWIDTH 617 0
DWIDTH 6 0
BBX 5 7 1 -2
BITMAP
F0
90
98
90
F0
80
80
ENDCHAR
STARTCHAR 0071
ENCODING 113
SWIDTH 617 0
DWIDTH 6 0
BBX 5 7 0 -2
BITMAP
78
C8
C8
48
78
08
08
ENDCHAR
STARTCHAR 0072
ENCODING 114
SWIDTH 411 0
DWIDTH 4 0
BBX 3 5 1 0
BITMAP
E0
80
80
80
80
ENDCHAR
STARTCHAR 0073
ENCODING 115
SWIDTH 411 0
DWIDTH 4 0
BBX 4 5 0 0
BITMAP
70
C0
70
90
70
ENDCHAR
STARTCHAR 0074
ENCODING 116
SWIDTH 411 0
DWIDTH 4 0
BBX 3 6 0 0
BITMAP
40
E0
40
40
40
60
ENDCHAR
STARTCHAR 0075
ENCODING 117
SWIDTH 617 0
DWIDTH 6 0
BBX 4 5 1 0
BITMAP
90
90
90
90
F0
ENDCHAR
STARTCHAR 0076
ENCODING 118
SWIDTH 514 0
DWIDTH 5 0
BBX 5 5 0 0
BITMAP
C8
58
50
70
30
ENDCHAR
STARTCHAR 0077
ENCODING 119
SWIDTH 822 0
DWIDTH 8 0
BBX 8 5 0 0
BITMAP
D9
5B
5E
66
66
ENDCHAR
STARTCHAR 0078
ENCODING 120
SWIDTH 514 0
DWIDTH 5 0
BBX 5 5 0 0
BITMAP
D8
70
20
70
D8
ENDCHAR
STARTCHAR 0079
ENCODING 121
SWIDTH 514 0
DWIDTH 5 0
BBX 5 7 0 -2
BITMAP
C8
58
70
30
20
20
60
ENDCHAR
STARTCHAR 007A
ENCODING 122
SWIDTH 514 0
DWIDTH 5 0
BBX 4 5 0 0
BITMAP
F0
30
60
40
F0
ENDCHAR
STARTCHAR 007B
ENCODING 123
SWIDTH 411 0
DWIDTH 4 0
BBX 4 10 0 -2
BITMAP
30
60
40
40
C0
40
40
40
60
30
ENDCHAR
STARTCHAR 007C
ENCODING 124
SWIDTH 308 0
DWIDTH 3 0
BBX 1 10 1 -2
BITMAP
80
80
80
80
80
80
80
80
80
80
ENDCHAR
STARTCHAR 007D
ENCODING 125
SWIDTH 411 0
DWIDTH 4 0
BBX 3 10 0 -2
BITMAP
C0
40
40
40
20
40
40
40
40
C0
ENDCHAR
STARTCHAR 007E
ENCODING 126
SWIDTH 617 0
DWIDTH 6 0
BBX 4 2 1 2
BITMAP
C0
30
ENDCHAR
STARTCHAR 00A0
ENCODING 160
SWIDTH 205 0
DWIDTH 2 0
BBX 0 0 0 0
BITMAP
ENDCHAR
STARTCHAR 00A1
ENCODING 161
SWIDTH 308 0
DWIDTH 3 0
BBX 1 7 1 -2
BITMAP
80
80
80
80
80
80
80
ENDCHAR
STARTCHAR 00A2
ENCODING 162
SWIDTH 514 0
DWIDTH 5 0
BBX 5 7 0 0
BITMAP
20
70
48
C0
48
70
20
ENDCHAR
STARTCHAR 00A3
ENCODING 163
SWIDTH 617 0
DWIDTH 6 0
BBX 5 7 1 0
BITMAP
70
90
80
E0
40
98
F0
ENDCHAR
STARTCHAR 00A4
ENCODING 164
SWIDTH 617 0
DWIDTH 6 0
BBX 5 5 0 0
BITMAP
88
78
48
78
88
ENDCHAR
STARTCHAR 00A5
ENCODING 165
SWIDTH 617 0
DWIDTH 6 0
BBX 6 7 0 0
BITMAP
CC
48
78
78
30
78
30
ENDCHAR
STARTCHAR 00A6
ENCODING 166
SWIDTH 308 0
DWIDTH 3 0
BBX 1 10 1 -2
BITMAP
80
80
80
80
00
00
80
80
80
80
ENDCHAR
STARTCHAR 00A7
ENCODING 167
SWIDTH 514 0
DWIDTH 5 0
BBX 4 9 1 -2
BITMAP
E0
B0
C0
E0
90
E0
30
B0
E0
ENDCHAR
STARTCHAR 00A8
ENCODING 168
SWIDTH 411 0
DWIDTH 4 0
BBX 4 1 0 6
BITMAP
F0
ENDCHAR
STARTCHAR 00A9
ENCODING 169
SWIDTH 822 0
DWIDTH 8 0
BBX 8 7 0 0
BITMAP
3C
42
9A
A1
9A
42
3C
ENDCHAR
STARTCHAR 00AA
ENCODING 170
SWIDTH 411 0
DWIDTH 4 0
BBX 3 4 1 3
BITMAP
C0
60
A0
E0
ENDCHAR
STARTCHAR 00AB
ENCODING 171
SWIDTH 514 0
DWIDTH 5 0
BBX 4 4 1 1
BITMAP
B0
A0
A0
B0
ENDCHAR
STARTCHAR 00AC
ENCODING 172
SWIDTH 617 0
DWIDTH 6 0
BBX 5 3 0 1
BITMAP
F8
08
08
ENDCHAR
STARTCHAR 00AD
ENCODING 173
SWIDTH 411 0
DWIDTH 4 0
BBX 3 1 0 2
BITMAP
E0
ENDCHAR
STARTCHAR 00AE
ENCODING 174
SWIDTH 822 0
DWIDTH 8 0
BBX 8 7 0 0
BITMAP
3C
42
5A
99
9A
42
3C
ENDCHAR
STARTCHAR 00AF
ENCODING 175
SWIDTH 308 0
DWIDTH 3 0
BBX 3 1 0 6
BITMAP
E0
ENDCHAR
STARTCHAR 00B0
ENCODING 176
SWIDTH 411 0
DWIDTH 4 0
BBX 3 3 0 4
BITMAP
60
A0
60
ENDCHAR
STARTCHAR 00B1
ENCODING 177
SWIDTH 617 0
DWIDTH 6 0
BBX 4 5 1 0
BITMAP
40
F0
40
40
F0
ENDCHAR
STARTCHAR 00B2
ENCODING 178
SWIDTH 411 0
DWIDTH 4 0
BBX 2 4 1 3
BITMAP
C0
40
80
C0
ENDCHAR
STARTCHAR 00B3
ENCODING 179
SWIDTH 411 0
DWIDTH 4 0
BBX 2 4 1 3
BITMAP
C0
C0
40
C0
ENDCHAR
STARTCHAR 00B4
ENCODING 180
SWIDTH 308 0
DWIDTH 3 0
BBX 2 2 0 5
BITMAP
40
C0
ENDCHAR
STARTCHAR 00B5
ENCODING 181
SWIDTH 617 0
DWIDTH 6 0
BBX 4 7 1 -2
BITMAP
90
90
90
90
F0
80
80
ENDCHAR
STARTCHAR 00B6
ENCODING 182
SWIDTH 617 0
DWIDTH 6 0
BBX 6 9 0 -2
BITMAP
7C
E8
E8
68
28
28
28
28
28
ENDCHAR
STARTCHAR 00B7
ENCODING 183
SWIDTH 308 0
DWIDTH 3 0
BBX 1 2 1 2
BITMAP
80
80
ENDCHAR
STARTCHAR 00B8
ENCODING 184
SWIDTH 308 0
DWIDTH 3 0
BBX 3 2 0 -2
BITMAP
40
E0
ENDCHAR
STARTCHAR 00B9
ENCODING 185
SWIDTH 308 0
DWIDTH 3 0
BBX 1 4 1 3
BITMAP
80
80
80
80
ENDCHAR
STARTCHAR 00BA
ENCODING 186
SWIDTH 514 0
DWIDTH 5 0
BBX 3 4 1 3
BITMAP
E0
A0
A0
C0
ENDCHAR
STARTCHAR 00BB
ENCODING 187
SWIDTH 514 0
DWIDTH 5 0
BBX 5 4 0 1
BITMAP
D0
50
58
50
ENDCHAR
STARTCHAR 00BC
ENCODING 188
SWIDTH 822 0
DWIDTH 8 0
BBX 7 7 0 0
BITMAP
44
CC
48
56
16
2E
42
ENDCHAR
STARTCHAR 00BD
ENCODING 189
SWIDTH 822 0
DWIDTH 8 0
BBX 8 7 0 0
BITMAP
44
CC
48
56
15
26
47
ENDCHAR
STARTCHAR 00BE
ENCODING 190
SWIDTH 925 0
DWIDTH 9 0
BBX 7 7 1 0
BITMAP
C4
C8
48
D6
2A
2E
42
ENDCHAR
STARTCHAR 00BF
ENCODING 191
SWIDTH 514 0
DWIDTH 5 0
BBX 5 7 0 -2
BITMAP
20
20
20
60
C0
D8
70
ENDCHAR
STARTCHAR 00C0
ENCODING 192
SWIDTH 720 0
DWIDTH 7 0
BBX 7 9 0 0
BITMAP
30
00
10
28
28
6C
7C
44
C6
ENDCHAR
STARTCHAR 00C1
ENCODING 193
SWIDTH 720 0
DWIDTH 7 0
BBX 7 9 0 0
BITMAP
18
00
10
28
28
6C
7C
44
C6
ENDCHAR
STARTCHAR 00C2
ENCODING 194
SWIDTH 720 0
DWIDTH 7 0
BBX 7 9 0 0
BITMAP
38
00
10
28
28
6C
7C
44
C6
ENDCHAR
STARTCHAR 00C3
ENCODING 195
SWIDTH 720 0
DWIDTH 7 0
BBX 7 9 0 0
BITMAP
38
38
10
28
28
6C
7C
44
C6
ENDCHAR
STARTCHAR 00C4
ENCODING 196
SWIDTH 720 0
DWIDTH 7 0
BBX 7 9 0 0
BITMAP
6C
00
10
28
28
6C
7C
44
C6
ENDCHAR
STARTCHAR 00C5
ENCODING 197
SWIDTH 720 0
DWIDTH 7 0
BBX 7 9 0 0
BITMAP
10
28
10
28
28
6C
7C
44
C6
ENDCHAR
STARTCHAR 00C6
ENCODING 198
SWIDTH 1028 0
DWIDTH 10 0
BBX 10 7 0 0
BITMAP
0FC0
0E00
1E00
3780
3E00
6600
C7C0
ENDCHAR
STARTCHAR 00C7
ENCODING 199
SWIDTH 720 0
DWIDTH 7 0
BBX 7 9 0 -2
BITMAP
3C
66
40
C0
C0
66
3C
18
18
ENDCHAR
STARTCHAR 00C8
ENCODING 200
SWIDTH 617 0
DWIDTH 6 0
BBX 4 9 1 0
BITMAP
40
00
F0
80
80
F0
80
80
F0
ENDCHAR
STARTCHAR 00C9
ENCODING 201
SWIDTH 617 0
DWIDTH 6 0
BBX 4 9 1 0
BITMAP
20
00
F0
80
80
F0
80
80
F0
ENDCHAR
STARTCHAR 00CA
ENCODING 202
SWIDTH 617 0
DWIDTH 6 0
BBX 4 9 1 0
BITMAP
60
00
F0
80
80
F0
80
80
F0
ENDCHAR
STARTCHAR 00CB
ENCODING 203
SWIDTH 617 0
DWIDTH 6 0
BBX 4 9 1 0
BITMAP
F0
00
F0
80
80
F0
80
80
F0
ENDCHAR
STARTCHAR 00CC
ENCODING 204
SWIDTH 308 0
DWIDTH 3 0
BBX 2 9 0 0
BITMAP
C0
00
40
40
40
40
40
40
40
ENDCHAR
STARTCHAR 00CD
ENCODING 205
SWIDTH 308 0
DWIDTH 3 0
BBX 2 9 1 0
BITMAP
C0
00
80
80
80
80
80
80
80
ENDCHAR
STARTCHAR 00CE
ENCODING 206
SWIDTH 308 0
DWIDTH 3 0
BBX 3 9 0 0
BITMAP
E0
00
40
40
40
40
40
40
40
ENDCHAR
STARTCHAR 00CF
ENCODING 207
SWIDTH 308 0
DWIDTH 3 0
BBX 3 9 0 0
BITMAP
A0
00
40
40
40
40
40
40
40
ENDCHAR
STARTCHAR 00D0
ENCODING 208
SWIDTH 720 0
DWIDTH 7 0
BBX 7 7 0 0
BITMAP
78
4C
46
F6
46
44
78
ENDCHAR
STARTCHAR 00D1
ENCODING 209
SWIDTH 720 0
DWIDTH 7 0
BBX 6 9 1 0
BITMAP
60
50
CC
CC
EC
BC
9C
9C
8C
ENDCHAR
STARTCHAR 00D2
ENCODING 210
SWIDTH 822 0
DWIDTH 8 0
BBX 7 8 0 0
BITMAP
10
3C
66
42
C2
42
66
3C
ENDCHAR
STARTCHAR 00D3
ENCODING 211
SWIDTH 822 0
DWIDTH 8 0
BBX 7 8 0 0
BITMAP
08
3C
66
42
C2
42
66
3C
ENDCHAR
STARTCHAR 00D4
ENCODING 212
SWIDTH 822 0
DWIDTH 8 0
BBX 7 8 0 0
BITMAP
18
3C
66
42
C2
42
66
3C
ENDCHAR
STARTCHAR 00D5
ENCODING 213
SWIDTH 822 0
DWIDTH 8 0
BBX 7 9 0 0
BITMAP
14
28
3C
66
42
C2
42
66
3C
ENDCHAR
STARTCHAR 00D6
ENCODING 214
SWIDTH 822 0
DWIDTH 8 0
BBX 7 8 0 0
BITMAP
24
3C
66
42
C2
42
66
3C
ENDCHAR
STARTCHAR 00D7
ENCODING 215
SWIDTH 514 0
DWIDTH 5 0
BBX 4 5 1 0
BITMAP
90
E0
40
E0
90
ENDCHAR
STARTCHAR 00D8
ENCODING 216
SWIDTH 822 0
DWIDTH 8 0
BBX 7 9 0 -1
BITMAP
02
3E
66
4A
DA
72
66
7C
40
ENDCHAR
STARTCHAR 00D9
ENCODING 217
SWIDTH 720 0
DWIDTH 7 0
BBX 5 9 1 0
BITMAP
60
00
88
88
88
88
88
D8
70
ENDCHAR
STARTCHAR 00DA
ENCODING 218
SWIDTH 720 0
DWIDTH 7 0
BBX 5 9 1 0
BITMAP
30
00
88
88
88
88
88
D8
70
ENDCHAR
STARTCHAR 00DB
ENCODING 219
SWIDTH 720 0
DWIDTH 7 0
BBX 5 9 1 0
BITMAP
60
10
88
88
88
88
88
D8
70
ENDCHAR
STARTCHAR 00DC
ENCODING 220
SWIDTH 720 0
DWIDTH 7 0
BBX 5 9 1 0
BITMAP
50
00
88
88
88
88
88
D8
70
ENDCHAR
STARTCHAR 00DD
ENCODING 221
SWIDTH 617 0
DWIDTH 6 0
BBX 6 9 0 0
BITMAP
10
00
CC
48
38
30
30
30
30
ENDCHAR
STARTCHAR 00DE
ENCODING 222
SWIDTH 617 0
DWIDTH 6 0
BBX 5 7 1 0
BITMAP
80
F0
90
98
90
F0
80
ENDCHAR
STARTCHAR 00DF
ENCODING 223
SWIDTH 617 0
DWIDTH 6 0
BBX 5 7 1 0
BITMAP
F0
90
B0
A0
B0
98
B0
ENDCHAR
STARTCHAR 00E0
ENCODING 224
SWIDTH 514 0
DWIDTH 5 0
BBX 5 7 0 0
BITMAP
60
20
70
D8
78
D8
78
ENDCHAR
STARTCHAR 00E1
ENCODING 225
SWIDTH 514 0
DWIDTH 5 0
BBX 5 7 0 0
BITMAP
10
20
70
D8
78
D8
78
ENDCHAR
STARTCHAR 00E2
ENCODING 226
SWIDTH 514 0
DWIDTH 5 0
BBX 5 7 0 0
BITMAP
20
50
70
D8
78
D8
78
ENDCHAR
STARTCHAR 00E3
ENCODING 227
SWIDTH 514 0
DWIDTH 5 0
BBX 5 8 0 0
BITMAP
70
50
00
70
D8
78
D8
78
ENDCHAR
STARTCHAR 00E4
ENCODING 228
SWIDTH 514 0
DWIDTH 5 0
BBX 5 7 0 0
BITMAP
50
00
70
D8
78
D8
78
ENDCHAR
STARTCHAR 00E5
ENCODING 229
SWIDTH 514 0
DWIDTH 5 0
BBX 5 8 0 0
BITMAP
20
50
20
70
D8
78
D8
78
ENDCHAR
STARTCHAR 00E6
ENCODING 230
SWIDTH 822 0
DWIDTH 8 0
BBX 8 5 0 0
BITMAP
7E
D9
7F
D9
7E
ENDCHAR
STARTCHAR 00E7
ENCODING 231
SWIDTH 514 0
DWIDTH 5 0
BBX 5 7 0 -2
BITMAP
70
48
C0
48
70
30
30
ENDCHAR
STARTCHAR 00E8
ENCODING 232
SWIDTH 514 0
DWIDTH 5 0
BBX 5 7 0 0
BITMAP
60
20
70
48
F8
48
70
ENDCHAR
STARTCHAR 00E9
ENCODING 233
SWIDTH 514 0
DWIDTH 5 0
BBX 5 7 0 0
BITMAP
10
20
70
48
F8
48
70
ENDCHAR
STARTCHAR 00EA
ENCODING 234
SWIDTH 514 0
DWIDTH 5 0
BBX 5 7 0 0
BITMAP
30
50
70
48
F8
48
70
ENDCHAR
STARTCHAR 00EB
ENCODING 235
SWIDTH 514 0
DWIDTH 5 0
BBX 5 7 0 0
BITMAP
50
00
70
48
F8
48
70
ENDCHAR
STARTCHAR 00EC
ENCODING 236
SWIDTH 308 0
DWIDTH 3 0
BBX 2 7 0 0
BITMAP
C0
00
40
40
40
40
40
ENDCHAR
STARTCHAR 00ED
ENCODING 237
SWIDTH 308 0
DWIDTH 3 0
BBX 1 7 1 0
BITMAP
80
00
80
80
80
80
80
ENDCHAR
STARTCHAR 00EE
ENCODING 238
SWIDTH 308 0
DWIDTH 3 0
BBX 3 7 0 0
BITMAP
E0
00
40
40
40
40
40
ENDCHAR
STARTCHAR 00EF
ENCODING 239
SWIDTH 308 0
DWIDTH 3 0
BBX 3 7 0 0
BITMAP
A0
00
40
40
40
40
40
ENDCHAR
STARTCHAR 00F0
ENCODING 240
SWIDTH 617 0
DWIDTH 6 0
BBX 5 7 0 0
BITMAP
68
38
78
C8
C8
48
70
ENDCHAR
STARTCHAR 00F1
ENCODING 241
SWIDTH 617 0
DWIDTH 6 0
BBX 4 8 1 0
BITMAP
50
A0
00
F0
90
90
90
90
ENDCHAR
STARTCHAR 00F2
ENCODING 242
SWIDTH 617 0
DWIDTH 6 0
BBX 5 7 0 0
BITMAP
60
20
70
48
C8
48
70
ENDCHAR
STARTCHAR 00F3
ENCODING 243
SWIDTH 617 0
DWIDTH 6 0
BBX 5 7 0 0
BITMAP
10
30
70
48
C8
48
70
ENDCHAR
STARTCHAR 00F4
ENCODING 244
SWIDTH 617 0
DWIDTH 6 0
BBX 5 7 0 0
BITMAP
30
50
70
48
C8
48
70
ENDCHAR
STARTCHAR 00F5
ENCODING 245
SWIDTH 617 0
DWIDTH 6 0
BBX 5 8 0 0
BITMAP
68
50
00
70
48
C8
48
70
ENDCHAR
STARTCHAR 00F6
ENCODING 246
SWIDTH 617 0
DWIDTH 6 0
BBX 5 7 0 0
BITMAP
58
00
70
48
C8
48
70
ENDCHAR
STARTCHAR 00F7
ENCODING 247
SWIDTH 617 0
DWIDTH 6 0
BBX 5 5 0 0
BITMAP
30
00
F8
00
30
ENDCHAR
STARTCHAR 00F8
ENCODING 248
SWIDTH 617 0
DWIDTH 6 0
BBX 5 6 0 -1
BITMAP
08
78
58
E8
68
70
ENDCHAR
STARTCHAR 00F9
ENCODING 249
SWIDTH 617 0
DWIDTH 6 0
BBX 4 7 1 0
BITMAP
40
00
90
90
90
90
F0
ENDCHAR
STARTCHAR 00FA
ENCODING 250
SWIDTH 617 0
DWIDTH 6 0
BBX 4 7 1 0
BITMAP
60
00
90
90
90
90
F0
ENDCHAR
STARTCHAR 00FB
ENCODING 251
SWIDTH 617 0
DWIDTH 6 0
BBX 4 7 1 0
BITMAP
60
00
90
90
90
90
F0
ENDCHAR
STARTCHAR 00FC
ENCODING 252
SWIDTH 617 0
DWIDTH 6 0
BBX 4 7 1 0
BITMAP
B0
00
90
90
90
90
F0
ENDCHAR
STARTCHAR 00FD
ENCODING 253
SWIDTH 514 0
DWIDTH 5 0
BBX 5 9 0 -2
BITMAP
30
00
C8
58
70
30
20
20
60
ENDCHAR
STARTCHAR 00FE
ENCODING 254
SWIDTH 617 0
DWIDTH 6 0
BBX 5 9 1 -2
BITMAP
80
80
F0
90
98
90
F0
80
80
ENDCHAR
STARTCHAR 00FF
ENCODING 255
SWIDTH 514 0
DWIDTH 5 0
BBX 5 9 0 -2
BITMAP
50
00
C8
58
70
30
20
20
60
ENDCHAR
STARTCHAR 0131
ENCODING 305
SWIDTH 308 0
DWIDTH 3 0
BBX 1 5 1 0
BITMAP
80
80
80
80
80
ENDCHAR
STARTCHAR 0141
ENCODING 321
SWIDTH 617 0
DWIDTH 6 0
BBX 5 7 0 0
BITMAP
40
40
50
60
C0
40
78
ENDCHAR
STARTCHAR 0142
ENCODING 322
SWIDTH 308 0
DWIDTH 3 0
BBX 3 7 0 0
BITMAP
40
40
40
60
C0
40
40
ENDCHAR
STARTCHAR 0152
ENCODING 338
SWIDTH 1131 0
DWIDTH 11 0
BBX 10 7 0 0
BITMAP
3FC0
6600
C200
C3C0
4200
6600
3FC0
ENDCHAR
STARTCHAR 0153
ENCODING 339
SWIDTH 925 0
DWIDTH 9 0
BBX 9 5 0 0
BITMAP
7700
4D80
CF80
4D80
7700
ENDCHAR
STARTCHAR 0160
ENCODING 352
SWIDTH 617 0
DWIDTH 6 0
BBX 5 8 0 0
BITMAP
30
78
48
40
78
08
C8
78
ENDCHAR
STARTCHAR 0161
ENCODING 353
SWIDTH 411 0
DWIDTH 4 0
BBX 4 7 0 0
BITMAP
50
60
70
C0
70
90
70
ENDCHAR
STARTCHAR 0178
ENCODING 376
SWIDTH 617 0
DWIDTH 6 0
BBX 6 9 0 0
BITMAP
68
00
CC
48
38
30
30
30
30
ENDCHAR
STARTCHAR 017D
ENCODING 381
SWIDTH 617 0
DWIDTH 6 0
BBX 6 9 0 0
BITMAP
38
00
FC
0C
18
30
60
40
FC
ENDCHAR
STARTCHAR 017E
ENCODING 382
SWIDTH 514 0
DWIDTH 5 0
BBX 4 7 0 0
BITMAP
70
00
F0
30
60
40
F0
ENDCHAR
STARTCHAR 0192
ENCODING 402
SWIDTH 514 0
DWIDTH 5 0
BBX 5 9 0 -2
BITMAP
18
30
78
20
20
60
60
40
C0
ENDCHAR
STARTCHAR 02C6
ENCODING 710
SWIDTH 411 0
DWIDTH 4 0
BBX 2 2 1 5
BITMAP
C0
C0
ENDCHAR
STARTCHAR 02C7
ENCODING 711
SWIDTH 411 0
DWIDTH 4 0
BBX 2 2 1 5
BITMAP
C0
C0
ENDCHAR
STARTCHAR 02C9
ENCODING 713
SWIDTH 308 0
DWIDTH 3 0
BBX 3 1 0 6
BITMAP
E0
ENDCHAR
STARTCHAR 02D8
ENCODING 728
SWIDTH 411 0
DWIDTH 4 0
BBX 3 2 0 5
BITMAP
A0
60
ENDCHAR
STARTCHAR 02D9
ENCODING 729
SWIDTH 205 0
DWIDTH 2 0
BBX 2 2 0 5
BITMAP
C0
C0
ENDCHAR
STARTCHAR 02DA
ENCODING 730
SWIDTH 308 0
DWIDTH 3 0
BBX 2 2 0 5
BITMAP
C0
C0
ENDCHAR
STARTCHAR 02DB
ENCODING 731
SWIDTH 205 0
DWIDTH 2 0
BBX 2 2 0 -2
BITMAP
80
C0
ENDCHAR
STARTCHAR 02DC
ENCODING 732
SWIDTH 411 0
DWIDTH 4 0
BBX 4 2 0 6
BITMAP
50
A0
ENDCHAR
STARTCHAR 02DD
ENCODING 733
SWIDTH 411 0
DWIDTH 4 0
BBX 3 2 0 5
BITMAP
60
A0
ENDCHAR
STARTCHAR 0394
ENCODING 916
SWIDTH 720 0
DWIDTH 7 0
BBX 7 7 0 0
BITMAP
30
38
28
68
4C
44
FE
ENDCHAR
STARTCHAR 03A9
ENCODING 937
SWIDTH 822 0
DWIDTH 8 0
BBX 7 7 0 0
BITMAP
3C
66
C2
C2
46
2C
EE
ENDCHAR
STARTCHAR 03BC
ENCODING 956
SWIDTH 617 0
DWIDTH 6 0
BBX 4 7 1 -2
BITMAP
90
90
90
90
F0
80
80
ENDCHAR
STARTCHAR 03C0
ENCODING 960
SWIDTH 617 0
DWIDTH 6 0
BBX 6 5 0 0
BITMAP
FC
48
48
48
4C
ENDCHAR
STARTCHAR 2007
ENCODING 8199
SWIDTH 617 0
DWIDTH 6 0
BBX 0 0 0 0
BITMAP
ENDCHAR
STARTCHAR 2008
ENCODING 8200
SWIDTH 308 0
DWIDTH 3 0
BBX 0 0 0 0
BITMAP
ENDCHAR
STARTCHAR 200B
ENCODING 8203
SWIDTH 0 0
DWIDTH 0 0
BBX 0 0 0 0
BITMAP
ENDCHAR
STARTCHAR 2013
ENCODING 8211
SWIDTH 617 0
DWIDTH 6 0
BBX 5 1 1 2
BITMAP
F8
ENDCHAR
STARTCHAR 2014
ENCODING 8212
SWIDTH 1131 0
DWIDTH 11 0
BBX 9 1 1 2
BITMAP
FF80
ENDCHAR
STARTCHAR 2018
ENCODING 8216
SWIDTH 205 0
DWIDTH 2 0
BBX 2 3 0 4
BITMAP
40
80
C0
ENDCHAR
STARTCHAR 2019
ENCODING 8217
SWIDTH 205 0
DWIDTH 2 0
BBX 2 3 0 4
BITMAP
C0
40
80
ENDCHAR
STARTCHAR 201A
ENCODING 8218
SWIDTH 205 0
DWIDTH 2 0
BBX 2 2 0 -1
BITMAP
C0
40
ENDCHAR
STARTCHAR 201C
ENCODING 8220
SWIDTH 411 0
DWIDTH 4 0
BBX 4 3 0 4
BITMAP
50
A0
F0
ENDCHAR
STARTCHAR 201D
ENCODING 8221
SWIDTH 411 0
DWIDTH 4 0
BBX 4 3 0 4
BITMAP
F0
50
A0
ENDCHAR
STARTCHAR 201E
ENCODING 8222
SWIDTH 411 0
DWIDTH 4 0
BBX 4 2 0 -1
BITMAP
F0
60
ENDCHAR
STARTCHAR 2020
ENCODING 8224
SWIDTH 411 0
DWIDTH 4 0
BBX 4 5 0 2
BITMAP
60
F0
60
60
60
ENDCHAR
STARTCHAR 2021
ENCODING 8225
SWIDTH 411 0
DWIDTH 4 0
BBX 4 7 0 0
BITMAP
20
F0
20
20
20
F0
20
ENDCHAR
STARTCHAR 2022
ENCODING 8226
SWIDTH 514 0
DWIDTH 5 0
BBX 4 4 1 1
BITMAP
E0
F0
F0
E0
ENDCHAR
STARTCHAR 2026
ENCODING 8230
SWIDTH 925 0
DWIDTH 9 0
BBX 7 1 1 0
BITMAP
92
ENDCHAR
STARTCHAR 2030
ENCODING 8240
SWIDTH 1131 0
DWIDTH 11 0
BBX 10 7 0 0
BITMAP
6200
9400
6800
0800
17C0
2540
27C0
ENDCHAR
STARTCHAR 2039
ENCODING 8249
SWIDTH 308 0
DWIDTH 3 0
BBX 1 4 1 1
BITMAP
80
80
80
80
ENDCHAR
STARTCHAR 203A
ENCODING 8250
SWIDTH 308 0
DWIDTH 3 0
BBX 2 4 0 1
BITMAP
C0
40
40
40
ENDCHAR
STARTCHAR 2042
ENCODING 8258
SWIDTH 822 0
DWIDTH 8 0
BBX 6 7 1 0
BITMAP
10
78
30
00
84
CC
CC
ENDCHAR
STARTCHAR 2044
ENCODING 8260
SWIDTH 617 0
DWIDTH 6 0
BBX 5 7 0 0
BITMAP
08
18
10
20
20
40
80
ENDCHAR
STARTCHAR 2051
ENCODING 8273
SWIDTH 411 0
DWIDTH 4 0
BBX 4 7 0 0
BITMAP
20
F0
60
00
20
60
60
ENDCHAR
STARTCHAR 2070
ENCODING 8304
SWIDTH 411 0
DWIDTH 4 0
BBX 3 4 1 3
BITMAP
C0
A0
A0
C0
ENDCHAR
STARTCHAR 2074
ENCODING 8308
SWIDTH 411 0
DWIDTH 4 0
BBX 4 4 0 3
BITMAP
20
60
F0
20
ENDCHAR
STARTCHAR 2075
ENCODING 8309
SWIDTH 411 0
DWIDTH 4 0
BBX 2 4 1 3
BITMAP
C0
C0
40
C0
ENDCHAR
STARTCHAR 2076
ENCODING 8310
SWIDTH 411 0
DWIDTH 4 0
BBX 3 4 1 3
BITMAP
C0
C0
A0
C0
ENDCHAR
STARTCHAR 2077
ENCODING 8311
SWIDTH 411 0
DWIDTH 4 0
BBX 3 4 0 3
BITMAP
E0
20
40
40
ENDCHAR
STARTCHAR 2078
ENCODING 8312
SWIDTH 411 0
DWIDTH 4 0
BBX 2 4 1 3
BITMAP
C0
C0
C0
C0
ENDCHAR
STARTCHAR 2079
ENCODING 8313
SWIDTH 411 0
DWIDTH 4 0
BBX 4 4 0 3
BITMAP
60
B0
60
60
ENDCHAR
STARTCHAR 2080
ENCODING 8320
SWIDTH 411 0
DWIDTH 4 0
BBX 3 4 1 -1
BITMAP
C0
A0
A0
C0
ENDCHAR
STARTCHAR 2081
ENCODING 8321
SWIDTH 308 0
DWIDTH 3 0
BBX 2 4 0 -1
BITMAP
40
C0
40
40
ENDCHAR
STARTCHAR 2082
ENCODING 8322
SWIDTH 411 0
DWIDTH 4 0
BBX 2 4 1 -1
BITMAP
C0
C0
C0
C0
ENDCHAR
STARTCHAR 2083
ENCODING 8323
SWIDTH 411 0
DWIDTH 4 0
BBX 2 4 1 -1
BITMAP
C0
40
40
C0
ENDCHAR
STARTCHAR 2084
ENCODING 8324
SWIDTH 411 0
DWIDTH 4 0
BBX 4 4 0 -1
BITMAP
20
60
F0
20
ENDCHAR
STARTCHAR 2085
ENCODING 8325
SWIDTH 411 0
DWIDTH 4 0
BBX 2 4 1 -1
BITMAP
C0
C0
40
C0
ENDCHAR
STARTCHAR 2086
ENCODING 8326
SWIDTH 411 0
DWIDTH 4 0
BBX 4 4 0 -1
BITMAP
60
40
F0
60
ENDCHAR
STARTCHAR 2087
ENCODING 8327
SWIDTH 411 0
DWIDTH 4 0
BBX 3 4 0 -1
BITMAP
E0
20
40
40
ENDCHAR
STARTCHAR 2088
ENCODING 8328
SWIDTH 411 0
DWIDTH 4 0
BBX 2 4 1 -1
BITMAP
C0
C0
C0
C0
ENDCHAR
STARTCHAR 2089
ENCODING 8329
SWIDTH 411 0
DWIDTH 4 0
BBX 4 4 0 -1
BITMAP
60
90
60
60
ENDCHAR
STARTCHAR 20AC
ENCODING 8364
SWIDTH 720 0
DWIDTH 7 0
BBX 5 7 1 0
BITMAP
38
40
F0
C0
F0
40
38
ENDCHAR
STARTCHAR 2113
ENCODING 8467
SWIDTH 411 0
DWIDTH 4 0
BBX 4 7 0 0
BITMAP
70
50
70
60
C0
40
70
ENDCHAR
STARTCHAR 2122
ENCODING 8482
SWIDTH 925 0
DWIDTH 9 0
BBX 8 4 0 3
BITMAP
E9
4F
4F
4D
ENDCHAR
STARTCHAR 2126
ENCODING 8486
SWIDTH 822 0
DWIDTH 8 0
BBX 7 7 0 0
BITMAP
3C
66
C2
C2
46
2C
EE
ENDCHAR
STARTCHAR 2160
ENCODING 8544
SWIDTH 514 0
DWIDTH 5 0
BBX 4 7 0 0
BITMAP
F0
20
20
20
20
20
F0
ENDCHAR
STARTCHAR 2161
ENCODING 8545
SWIDTH 822 0
DWIDTH 8 0
BBX 7 7 0 0
BITMAP
FE
24
24
24
24
24
FE
ENDCHAR
STARTCHAR 2162
ENCODING 8546
SWIDTH 1028 0
DWIDTH 10 0
BBX 10 7 0 0
BITMAP
FFC0
2D80
2D80
2D80
2D80
2D80
FFC0
ENDCHAR
STARTCHAR 2163
ENCODING 8547
SWIDTH 1028 0
DWIDTH 10 0
BBX 10 7 0 0
BITMAP
FFC0
2980
2D00
2D00
2500
2700
FFC0
ENDCHAR
STARTCHAR 2164
ENCODING 8548
SWIDTH 822 0
DWIDTH 8 0
BBX 7 7 0 0
BITMAP
FE
24
24
2C
38
18
FE
ENDCHAR
STARTCHAR 2165
ENCODING 8549
SWIDTH 1028 0
DWIDTH 10 0
BBX 10 7 0 0
BITMAP
FFC0
2500
2500
2D00
3900
1900
FFC0
ENDCHAR
STARTCHAR 2166
ENCODING 8550
SWIDTH 1337 0
DWIDTH 13 0
BBX 12 7 0 0
BITMAP
FFF0
2520
2520
2D20
3920
1920
FFF0
ENDCHAR
STARTCHAR 2167
ENCODING 8551
SWIDTH 1542 0
DWIDTH 15 0
BBX 15 7 0 0
BITMAP
FFFE
252C
252C
2D2C
392C
192C
FFFE
ENDCHAR
STARTCHAR 2168
ENCODING 8552
SWIDTH 1028 0
DWIDTH 10 0
BBX 10 7 0 0
BITMAP
FFC0
2D00
2700
2600
2700
2D00
FFC0
ENDCHAR
STARTCHAR 2169
ENCODING 8553
SWIDTH 822 0
DWIDTH 8 0
BBX 7 7 0 0
BITMAP
FE
2C
38
18
38
2C
FE
ENDCHAR
STARTCHAR 216C
ENCODING 8556
SWIDTH 617 0
DWIDTH 6 0
BBX 6 7 0 0
BITMAP
F0
20
20
20
24
24
FC
ENDCHAR
STARTCHAR 216D
ENCODING 8557
SWIDTH 720 0
DWIDTH 7 0
BBX 7 7 0 0
BITMAP
3E
46
46
C0
46
66
3E
ENDCHAR
STARTCHAR 216E
ENCODING 8558
SWIDTH 720 0
DWIDTH 7 0
BBX 7 7 0 0
BITMAP
F8
24
26
26
26
24
F8
ENDCHAR
STARTCHAR 216F
ENCODING 8559
SWIDTH 1028 0
DWIDTH 10 0
BBX 10 7 0 0
BITMAP
F1C0
3380
3380
3B80
2D80
2D80
FFC0
ENDCHAR
STARTCHAR 2190
ENCODING 8592
SWIDTH 1028 0
DWIDTH 10 0
BBX 10 4 0 1
BITMAP
4000
4000
FFC0
4000
ENDCHAR
STARTCHAR 2191
ENCODING 8593
SWIDTH 514 0
DWIDTH 5 0
BBX 5 9 0 -1
BITMAP
20
70
F8
20
20
20
20
20
20
ENDCHAR
STARTCHAR 2192
ENCODING 8594
SWIDTH 1131 0
DWIDTH 11 0
BBX 10 4 0 1
BITMAP
0100
0180
FFC0
0100
ENDCHAR
STARTCHAR 2193
ENCODING 8595
SWIDTH 514 0
DWIDTH 5 0
BBX 4 9 0 -1
BITMAP
20
20
20
20
20
20
F0
70
20
ENDCHAR
STARTCHAR 2196
ENCODING 8598
SWIDTH 925 0
DWIDTH 9 0
BBX 6 7 1 0
BITMAP
C0
C0
E0
30
18
0C
04
ENDCHAR
STARTCHAR 2197
ENCODING 8599
SWIDTH 720 0
DWIDTH 7 0
BBX 6 7 0 0
BITMAP
0C
0C
1C
30
60
C0
80
ENDCHAR
STARTCHAR 2198
ENCODING 8600
SWIDTH 822 0
DWIDTH 8 0
BBX 6 7 1 0
BITMAP
80
C0
60
30
1C
0C
0C
ENDCHAR
STARTCHAR 2199
ENCODING 8601
SWIDTH 720 0
DWIDTH 7 0
BBX 7 7 0 0
BITMAP
02
06
0C
18
B0
E0
E0
ENDCHAR
STARTCHAR 21A9
ENCODING 8617
SWIDTH 822 0
DWIDTH 8 0
BBX 8 6 0 1
BITMAP
0E
01
41
41
FE
40
ENDCHAR
STARTCHAR 21B0
ENCODING 8624
SWIDTH 822 0
DWIDTH 8 0
BBX 7 7 0 0
BITMAP
20
60
FE
22
02
02
02
ENDCHAR
STARTCHAR 21B1
ENCODING 8625
SWIDTH 720 0
DWIDTH 7 0
BBX 7 7 0 0
BITMAP
08
04
FE
84
80
80
80
ENDCHAR
STARTCHAR 21B2
ENCODING 8626
SWIDTH 822 0
DWIDTH 8 0
BBX 7 7 0 0
BITMAP
02
02
02
42
FE
40
40
ENDCHAR
STARTCHAR 21B3
ENCODING 8627
SWIDTH 822 0
DWIDTH 8 0
BBX 6 7 1 0
BITMAP
80
80
80
88
FC
0C
08
ENDCHAR
STARTCHAR 21B4
ENCODING 8628
SWIDTH 822 0
DWIDTH 8 0
BBX 6 7 1 0
BITMAP
F8
08
08
08
08
1C
08
ENDCHAR
STARTCHAR 21C6
ENCODING 8646
SWIDTH 1131 0
DWIDTH 11 0
BBX 10 9 1 -1
BITMAP
4000
4000
FFC0
4000
0100
0180
FFC0
0180
0100
ENDCHAR
STARTCHAR 2202
ENCODING 8706
SWIDTH 617 0
DWIDTH 6 0
BBX 6 7 0 0
BITMAP
70
18
08
7C
CC
C8
78
ENDCHAR
STARTCHAR 2206
ENCODING 8710
SWIDTH 720 0
DWIDTH 7 0
BBX 7 7 0 0
BITMAP
30
38
28
68
4C
44
FE
ENDCHAR
STARTCHAR 220F
ENCODING 8719
SWIDTH 720 0
DWIDTH 7 0
BBX 5 7 1 0
BITMAP
F8
88
88
88
88
88
88
ENDCHAR
STARTCHAR 2211
ENCODING 8721
SWIDTH 617 0
DWIDTH 6 0
BBX 5 7 0 0
BITMAP
F8
40
30
18
30
40
F8
ENDCHAR
STARTCHAR 2212
ENCODING 8722
SWIDTH 617 0
DWIDTH 6 0
BBX 5 1 0 2
BITMAP
F8
ENDCHAR
STARTCHAR 2215
ENCODING 8725
SWIDTH 411 0
DWIDTH 4 0
BBX 4 7 0 0
BITMAP
10
30
20
20
40
40
80
ENDCHAR
STARTCHAR 2219
ENCODING 8729
SWIDTH 308 0
DWIDTH 3 0
BBX 1 2 1 2
BITMAP
80
80
ENDCHAR
STARTCHAR 221A
ENCODING 8730
SWIDTH 720 0
DWIDTH 7 0
BBX 7 9 0 0
BITMAP
06
0C
08
C8
48
50
70
30
20
ENDCHAR
STARTCHAR 221E
ENCODING 8734
SWIDTH 822 0
DWIDTH 8 0
BBX 8 4 0 1
BITMAP
76
DB
DB
7E
ENDCHAR
STARTCHAR 222B
ENCODING 8747
SWIDTH 308 0
DWIDTH 3 0
BBX 3 9 0 -2
BITMAP
20
40
40
40
40
40
40
40
C0
ENDCHAR
STARTCHAR 2248
ENCODING 8776
SWIDTH 617 0
DWIDTH 6 0
BBX 4 4 1 1
BITMAP
C0
30
00
F0
ENDCHAR
STARTCHAR 2260
ENCODING 8800
SWIDTH 617 0
DWIDTH 6 0
BBX 4 5 1 0
BITMAP
10
F0
60
F0
80
ENDCHAR
STARTCHAR 2264
ENCODING 8804
SWIDTH 514 0
DWIDTH 5 0
BBX 4 5 1 0
BITMAP
30
C0
E0
10
F0
ENDCHAR
STARTCHAR 2265
ENCODING 8805
SWIDTH 514 0
DWIDTH 5 0
BBX 4 5 1 0
BITMAP
80
70
E0
00
F0
ENDCHAR
STARTCHAR 22C5
ENCODING 8901
SWIDTH 308 0
DWIDTH 3 0
BBX 1 2 1 2
BITMAP
80
80
ENDCHAR
STARTCHAR 24C5
ENCODING 9413
SWIDTH 822 0
DWIDTH 8 0
BBX 8 7 0 0
BITMAP
3C
42
9E
99
92
42
3C
ENDCHAR
STARTCHAR 25A0
ENCODING 9632
SWIDTH 925 0
DWIDTH 9 0
BBX 7 7 1 0
BITMAP
FE
FE
FE
FE
FE
FE
FE
ENDCHAR
STARTCHAR 25A1
ENCODING 9633
SWIDTH 925 0
DWIDTH 9 0
BBX 7 7 1 0
BITMAP
FE
82
82
82
82
82
FE
ENDCHAR
STARTCHAR 25B2
ENCODING 9650
SWIDTH 822 0
DWIDTH 8 0
BBX 8 7 0 0
BITMAP
10
18
1C
3C
7E
7E
FF
ENDCHAR
STARTCHAR 25B3
ENCODING 9651
SWIDTH 822 0
DWIDTH 8 0
BBX 8 7 0 0
BITMAP
10
18
1C
24
66
42
FF
ENDCHAR
STARTCHAR 25CA
ENCODING 9674
SWIDTH 617 0
DWIDTH 6 0
BBX 6 7 0 0
BITMAP
30
78
48
CC
48
78
30
ENDCHAR
STARTCHAR 25CB
ENCODING 9675
SWIDTH 822 0
DWIDTH 8 0
BBX 8 7 0 0
BITMAP
3C
66
42
83
C2
66
3C
ENDCHAR
STARTCHAR 25CF
ENCODING 9679
SWIDTH 822 0
DWIDTH 8 0
BBX 8 7 0 0
BITMAP
3C
7E
FE
FF
FE
7E
3C
ENDCHAR
STARTCHAR 262E
ENCODING 9774
SWIDTH 822 0
DWIDTH 8 0
BBX 8 7 0 0
BITMAP
3C
76
52
9B
76
56
3C
ENDCHAR
STARTCHAR 2713
ENCODING 10003
SWIDTH 925 0
DWIDTH 9 0
BBX 8 7 1 0
BITMAP
01
02
04
08
90
60
40
ENDCHAR
STARTCHAR 2715
ENCODING 10005
SWIDTH 720 0
DWIDTH 7 0
BBX 7 7 0 0
BITMAP
82
44
28
10
28
44
82
ENDCHAR
STARTCHAR 2780
ENCODING 10112
SWIDTH 822 0
DWIDTH 8 0
BBX 8 7 0 0
BITMAP
3C
42
9A
89
8A
42
3C
ENDCHAR
STARTCHAR 2781
ENCODING 10113
SWIDTH 822 0
DWIDTH 8 0
BBX 8 7 0 0
BITMAP
3C
42
5A
89
9A
42
3C
ENDCHAR
STARTCHAR 2782
ENCODING 10114
SWIDTH 822 0
DWIDTH 8 0
BBX 8 7 0 0
BITMAP
3C
42
9A
89
9A
42
3C
ENDCHAR
STARTCHAR 2783
ENCODING 10115
SWIDTH 822 0
DWIDTH 8 0
BBX 8 7 0 0
BITMAP
3C
42
9A
A9
BE
42
3C
ENDCHAR
STARTCHAR 2784
ENCODING 10116
SWIDTH 822 0
DWIDTH 8 0
BBX 8 7 0 0
BITMAP
3C
42
9A
99
9A
42
3C
ENDCHAR
STARTCHAR 2785
ENCODING 10117
SWIDTH 822 0
DWIDTH 8 0
BBX 8 7 0 0
BITMAP
3C
42
9A
B9
9A
42
3C
ENDCHAR
STARTCHAR 2786
ENCODING 10118
SWIDTH 822 0
DWIDTH 8 0
BBX 8 7 0 0
BITMAP
3C
42
BA
89
92
42
3C
ENDCHAR
STARTCHAR 2787
ENCODING 10119
SWIDTH 822 0
DWIDTH 8 0
BBX 8 7 0 0
BITMAP
3C
42
9A
99
9A
42
3C
ENDCHAR
STARTCHAR 2788
ENCODING 10120
SWIDTH 822 0
DWIDTH 8 0
BBX 8 7 0 0
BITMAP
3C
42
9A
9D
9A
42
3C
ENDCHAR
STARTCHAR E000
ENCODING 57344
SWIDTH 720 0
DWIDTH 7 0
BBX 7 7 0 0
BITMAP
3E
20
20
20
20
F0
20
ENDCHAR
STARTCHAR E001
ENCODING 57345
SWIDTH 1131 0
DWIDTH 11 0
BBX 9 7 1 0
BITMAP
1C00
6100
4380
4780
E100
4200
1C00
ENDCHAR
STARTCHAR E002
ENCODING 57346
SWIDTH 925 0
DWIDTH 9 0
BBX 9 7 0 0
BITMAP
3800
6000
4300
C780
4200
6600
3C00
ENDCHAR
STARTCHAR FB00
ENCODING 64256
SWIDTH 720 0
DWIDTH 7 0
BBX 6 7 0 0
BITMAP
6C
48
FC
48
48
48
48
ENDCHAR
STARTCHAR FB01
ENCODING 64257
SWIDTH 617 0
DWIDTH 6 0
BBX 6 7 0 0
BITMAP
6C
40
F8
48
48
48
48
ENDCHAR
STARTCHAR FB02
ENCODING 64258
SWIDTH 617 0
DWIDTH 6 0
BBX 5 7 0 0
BITMAP
68
48
F8
48
48
48
48
ENDCHAR
STARTCHAR FB03
ENCODING 64259
SWIDTH 925 0
DWIDTH 9 0
BBX 9 7 0 0
BITMAP
6D80
4800
FF80
4980
4980
4980
4980
ENDCHAR
STARTCHAR FB04
ENCODING 64260
SWIDTH 925 0
DWIDTH 9 0
BBX 9 7 0 0
BITMAP
6D80
4980
FF80
4980
4980
4980
4980
ENDCHAR
STARTCHAR FEFF
ENCODING 65279
SWIDTH 0 0
DWIDTH 0 0
BBX 0 0 0 0
BITMAP
ENDCHAR
ENDFONT
